<?xml version="1.0" standalone="no"?>
<!DOCTYPE svg PUBLIC "-//W3C//DTD SVG 20010904//EN"
 "http://www.w3.org/TR/2001/REC-SVG-20010904/DTD/svg10.dtd">
<svg version="1.0" xmlns="http://www.w3.org/2000/svg"
 width="310.000000pt" height="310.000000pt" viewBox="0 0 310.000000 310.000000"
 preserveAspectRatio="xMidYMid meet">
<metadata>
Created by potrace 1.14, written by Peter Selinger 2001-2017
</metadata>
<g transform="translate(0.000000,310.000000) scale(0.100000,-0.100000)"
fill="#000000" stroke="none">
<path d="M997 2927 c-4 -10 -13 -13 -26 -10 -12 3 -21 1 -21 -6 0 -6 -3 -10
-7 -10 -26 4 -43 -2 -37 -13 5 -8 0 -7 -11 2 -12 9 -16 10 -11 2 5 -8 -2 -16
-23 -23 -17 -6 -28 -15 -25 -20 3 -5 1 -9 -4 -9 -5 0 -19 -9 -32 -20 -13 -11
-20 -20 -16 -20 3 0 -7 -14 -24 -31 -16 -18 -30 -38 -30 -46 0 -8 -4 -12 -9
-9 -5 4 -8 -2 -7 -11 2 -10 -1 -21 -6 -24 -5 -3 -10 -12 -12 -20 -1 -8 -7 -23
-13 -34 -6 -11 -9 -28 -8 -37 2 -10 -2 -18 -8 -18 -5 0 -7 -3 -4 -7 4 -3 2
-12 -4 -20 -6 -7 -7 -13 -2 -13 5 0 10 -7 10 -15 0 -8 -4 -12 -9 -9 -4 3 -8
-5 -9 -18 -3 -61 -5 -74 -12 -85 -4 -6 -3 -14 2 -17 5 -4 8 -20 6 -36 -3 -21
-1 -28 7 -24 7 4 8 3 4 -5 -4 -6 -2 -19 6 -28 11 -14 11 -16 -1 -8 -11 6 -13
4 -7 -11 5 -10 9 -25 9 -31 0 -7 5 -13 10 -13 6 0 7 -3 4 -7 -4 -3 -1 -13 6
-21 8 -11 8 -13 0 -9 -8 5 -8 1 0 -18 7 -14 15 -25 20 -25 4 0 7 -9 7 -20 0
-11 4 -20 9 -20 9 0 37 -60 33 -72 -1 -5 1 -7 6 -5 4 1 7 -2 7 -6 0 -5 8 -13
18 -18 9 -6 15 -14 12 -19 -3 -4 2 -11 11 -14 8 -3 12 -11 8 -17 -4 -7 -3 -9
3 -6 5 3 16 -4 24 -15 20 -30 179 -190 179 -181 0 5 9 -5 19 -20 13 -20 20
-25 24 -15 4 9 6 7 6 -4 1 -10 5 -18 10 -18 5 0 23 -13 41 -30 18 -16 37 -27
44 -23 6 3 8 3 4 -2 -8 -8 16 -30 37 -35 6 -2 16 -11 23 -21 7 -11 18 -19 23
-19 6 0 17 -7 26 -15 8 -8 19 -12 25 -9 6 4 8 2 5 -3 -7 -11 9 -22 26 -19 5 0
13 -7 18 -16 6 -10 17 -18 24 -18 8 0 15 -3 15 -8 0 -7 9 -13 66 -42 16 -8 35
-20 42 -27 8 -7 17 -11 22 -8 4 3 11 -2 14 -11 3 -8 10 -12 16 -9 6 3 13 0 16
-8 2 -7 10 -14 17 -14 7 0 21 -4 32 -8 11 -4 16 -3 10 2 -5 4 -10 17 -10 28 1
11 -2 35 -6 53 -4 19 -3 32 3 32 7 0 6 5 -1 13 -6 8 -9 16 -6 18 2 3 5 22 7
43 1 20 6 40 10 42 4 3 8 10 8 15 0 6 -4 8 -9 5 -5 -4 -1 11 9 31 10 21 16 41
13 45 -2 5 1 8 6 8 6 0 10 3 10 8 -3 20 2 32 13 26 6 -4 8 -3 4 4 -3 6 -2 13
3 17 6 3 7 13 4 22 -4 11 -2 14 5 9 7 -4 14 4 18 20 4 15 19 39 33 53 15 14
28 31 29 36 1 6 8 17 16 27 8 9 12 19 9 21 -2 3 5 8 16 12 12 3 19 11 16 16
-4 5 -1 9 4 9 6 0 11 7 11 16 0 8 5 12 10 9 6 -3 10 -2 10 3 0 5 9 19 20 32
11 12 17 27 13 33 -3 5 -2 7 4 4 11 -7 45 28 36 37 -4 3 -2 6 4 6 6 0 16 13
23 30 7 16 16 27 21 24 5 -3 6 2 3 10 -3 9 -1 16 5 16 6 0 10 3 9 8 -1 4 3 17
10 30 7 12 9 22 5 22 -4 0 1 7 11 15 11 9 14 15 7 15 -9 0 -8 5 3 16 18 17 21
28 6 19 -6 -3 -7 1 -4 9 3 9 10 16 15 16 4 0 6 6 3 14 -3 8 -1 24 6 35 8 15 8
21 0 21 -6 0 -8 4 -5 10 11 18 14 50 4 55 -5 4 -5 14 1 26 6 10 7 19 2 19 -4
0 -8 8 -9 18 -3 43 -8 62 -15 62 -4 0 -8 9 -8 20 0 11 -5 20 -11 20 -5 0 -7 5
-4 11 4 6 -3 21 -16 35 -12 13 -19 24 -16 24 4 0 -2 10 -12 23 -11 12 -29 33
-40 46 -12 13 -21 20 -22 15 0 -5 -4 1 -10 14 -5 13 -13 21 -17 18 -5 -3 -15
4 -22 15 -8 10 -19 19 -24 19 -5 0 -17 7 -27 16 -9 8 -26 16 -38 17 -11 1 -21
4 -21 8 0 8 -96 4 -137 -6 -18 -4 -33 -10 -33 -14 0 -3 -9 -12 -21 -19 -17
-11 -20 -11 -14 0 4 7 -4 1 -17 -14 -14 -15 -28 -25 -32 -21 -3 3 -6 1 -6 -5
0 -6 -16 -28 -35 -48 -19 -20 -33 -39 -30 -44 3 -4 -3 -11 -12 -14 -10 -4 -14
-4 -11 0 4 3 -3 16 -15 29 -12 12 -31 33 -42 46 -28 35 -101 90 -109 82 -3 -3
-6 -1 -6 5 0 7 -9 12 -20 12 -11 0 -20 5 -20 10 0 6 -9 10 -19 10 -11 0 -23 5
-26 10 -5 8 -11 8 -20 0 -10 -8 -15 -8 -20 0 -4 7 -20 10 -36 8 -15 -3 -26 -1
-23 4 3 4 1 8 -5 8 -5 0 -12 -6 -14 -12 -4 -10 -8 -10 -15 0 -8 11 -10 11 -15
-1z"/>
<path d="M2390 2142 c0 -6 -11 -9 -25 -7 -14 1 -25 -2 -25 -6 0 -5 -9 -9 -20
-9 -11 0 -20 -4 -20 -10 0 -5 -7 -7 -15 -4 -8 4 -17 -1 -21 -10 -3 -9 -10 -14
-15 -11 -4 3 -17 -2 -29 -12 -11 -10 -23 -17 -25 -16 -6 3 -49 -34 -91 -76
-19 -19 -34 -30 -34 -25 0 4 -6 -1 -14 -11 -8 -11 -12 -24 -9 -29 4 -5 1 -6
-4 -3 -6 4 -14 0 -17 -9 -3 -8 -11 -12 -17 -8 -8 4 -9 3 -5 -4 4 -6 -7 -24
-24 -41 -17 -16 -32 -38 -33 -49 0 -12 -4 -19 -8 -16 -6 3 -22 -25 -19 -34 0
-2 -13 -20 -38 -47 -11 -12 -11 -15 0 -15 8 -1 7 -5 -5 -14 -10 -8 -18 -16
-18 -18 1 -11 -12 -48 -18 -48 -4 0 -7 -8 -7 -17 -1 -30 -8 -47 -23 -59 -10
-8 -11 -13 -2 -18 6 -4 9 -12 5 -17 -3 -5 -11 -6 -17 -2 -8 4 -7 1 1 -9 9 -12
10 -18 2 -23 -7 -4 -10 -16 -7 -26 3 -11 2 -19 -1 -19 -4 0 -7 -18 -8 -40 0
-39 8 -51 21 -30 5 8 11 7 21 -1 11 -9 14 -9 14 1 0 8 3 10 7 7 3 -4 12 -2 20
4 7 6 13 8 13 4 0 -4 7 -2 15 5 8 7 15 9 15 5 0 -4 8 -1 17 6 10 9 14 9 10 2
-5 -9 0 -8 19 2 15 7 33 11 40 8 8 -3 20 -1 27 4 6 6 24 9 39 8 16 -1 25 2 21
8 -4 6 0 8 9 4 9 -3 19 -3 23 1 10 10 29 9 37 -3 5 -7 8 -7 8 0 0 10 19 13
100 19 14 1 30 5 37 9 6 4 13 2 15 -5 3 -7 9 -8 18 -3 17 11 160 13 167 2 2
-4 10 -4 16 0 17 11 71 10 79 -2 5 -7 8 -6 8 1 0 6 17 10 40 9 23 -1 43 2 46
7 8 13 26 9 19 -4 -4 -7 0 -5 8 4 8 10 26 19 40 20 14 1 24 5 21 9 -2 4 4 10
13 13 10 3 33 28 51 55 33 51 39 67 23 57 -5 -4 -8 2 -7 11 2 9 7 18 12 20 14
5 9 70 -7 90 -11 13 -11 15 0 9 10 -7 12 -3 6 15 -4 13 -13 29 -19 34 -7 6
-21 22 -30 38 -10 15 -25 27 -32 27 -8 0 -14 3 -14 8 0 8 -61 38 -72 34 -5 -1
-8 3 -8 9 0 5 -4 7 -10 4 -5 -3 -10 -1 -10 5 0 6 -4 9 -8 6 -5 -3 -21 1 -36 9
-18 10 -25 11 -21 2 4 -7 0 -3 -9 7 -8 10 -13 23 -10 27 3 5 -1 9 -8 9 -8 0
-9 3 -3 8 12 9 18 32 8 32 -5 0 -9 12 -10 27 0 15 -6 29 -12 31 -6 2 -10 7 -8
10 2 4 -4 15 -15 25 -10 9 -18 14 -18 11 0 -3 -7 2 -16 10 -8 9 -19 14 -24 11
-5 -3 -11 1 -13 7 -4 10 -6 10 -6 0 -1 -10 -6 -10 -21 -2 -15 8 -20 8 -20 -1
0 -8 -4 -8 -15 1 -9 7 -15 8 -15 2z"/>
<path d="M515 1611 c-3 -2 -19 -5 -37 -6 -18 -2 -39 -3 -46 -4 -8 -1 -10 -6
-6 -13 6 -10 5 -10 -7 -1 -9 7 -20 8 -29 3 -8 -5 -18 -6 -22 -4 -4 3 -8 0 -8
-5 0 -6 -9 -11 -20 -11 -11 0 -23 -7 -27 -16 -5 -13 -7 -13 -14 -2 -7 10 -9
10 -9 1 0 -7 -7 -13 -15 -13 -8 0 -15 -8 -15 -17 0 -14 -2 -15 -9 -4 -7 11
-10 11 -17 0 -5 -8 -26 -25 -46 -39 -20 -13 -34 -28 -32 -32 3 -4 0 -8 -5 -8
-6 0 -14 -1 -18 -2 -11 -4 -73 -96 -73 -108 0 -6 -4 -9 -9 -6 -5 4 -7 -4 -3
-16 3 -12 1 -19 -5 -15 -10 6 -11 4 -14 -53 -1 -19 -7 -38 -13 -42 -7 -5 -7
-8 2 -8 7 0 10 -4 7 -10 -3 -5 0 -10 7 -10 9 0 9 -3 -2 -10 -9 -6 -10 -10 -3
-10 6 0 10 -9 8 -20 -2 -11 0 -20 4 -20 10 0 35 -52 32 -65 -2 -5 1 -7 4 -3 4
4 21 -7 36 -23 16 -17 29 -28 29 -24 0 3 7 -1 16 -9 8 -9 22 -16 30 -16 8 0
13 -4 10 -9 -4 -5 2 -8 11 -6 10 1 29 -4 42 -12 18 -12 22 -12 16 -2 -3 8 1 5
9 -5 10 -13 16 -15 16 -7 0 11 3 11 15 1 8 -7 15 -9 15 -6 0 4 6 1 14 -6 12
-11 11 -16 -5 -34 -11 -11 -16 -24 -12 -27 3 -4 1 -7 -5 -7 -7 0 -11 -3 -10
-7 1 -8 -4 -24 -23 -71 -6 -17 -6 -21 2 -16 8 4 8 0 0 -15 -7 -11 -8 -21 -4
-21 4 0 9 -15 10 -32 2 -18 7 -34 13 -36 5 -2 10 -8 10 -13 0 -17 45 -56 59
-51 8 3 11 0 7 -7 -4 -6 -1 -11 8 -11 9 0 16 -4 16 -10 0 -5 6 -7 14 -4 8 3
17 1 20 -5 4 -6 13 -8 21 -4 8 3 15 0 15 -6 0 -6 9 -11 19 -11 11 0 23 -5 26
-10 4 -7 13 -7 24 0 12 6 22 5 31 -3 10 -9 14 -9 17 1 3 6 10 9 16 5 19 -12
41 -13 54 -1 10 8 13 7 13 -3 0 -11 2 -11 10 1 8 12 10 12 10 1 0 -10 3 -11
13 -2 8 6 17 8 20 4 4 -3 7 -2 7 4 0 5 6 10 13 10 28 0 130 56 159 87 10 10
18 16 18 12 0 -4 14 7 30 24 17 17 28 36 24 41 -3 5 -2 8 3 7 5 -2 20 8 33 21
14 13 18 20 10 16 -15 -9 15 33 35 47 6 4 6 8 1 8 -5 0 -3 7 4 15 6 8 8 20 4
27 -6 10 -5 10 8 0 14 -11 16 -10 11 7 -3 12 -1 21 5 21 10 0 25 31 27 55 0 6
6 9 12 8 9 -2 33 42 37 69 1 3 5 10 10 15 5 5 6 2 1 -6 -5 -9 -4 -12 3 -7 7 4
12 14 12 22 0 8 5 12 10 9 6 -4 10 -3 9 2 -3 18 1 36 8 30 3 -4 16 7 28 23 12
16 25 27 28 23 4 -3 7 1 7 10 0 9 3 16 8 16 18 -3 32 2 29 10 -1 5 3 10 8 11
6 1 17 7 25 13 27 21 62 38 67 33 3 -3 12 2 20 10 8 8 19 12 24 9 5 -4 9 -2 9
4 0 5 9 8 21 6 15 -3 19 0 15 11 -3 9 -6 18 -6 20 0 2 -9 4 -21 4 -11 0 -17 5
-14 10 3 6 -1 10 -10 10 -9 0 -31 11 -49 25 -18 14 -36 22 -39 18 -4 -3 -7 -1
-7 5 0 7 -7 12 -15 12 -8 0 -15 3 -15 8 0 4 -25 18 -55 31 -33 14 -52 28 -48
35 3 6 3 8 -2 4 -4 -4 -20 -1 -35 7 -15 8 -30 11 -34 8 -3 -4 -6 -1 -6 6 0 7
-5 9 -10 6 -5 -3 -10 -1 -10 4 0 6 -9 11 -19 11 -11 0 -27 7 -35 16 -11 11
-16 12 -16 3 0 -7 -6 -5 -13 6 -8 10 -19 15 -25 11 -7 -4 -12 -2 -12 4 0 6 -4
8 -10 5 -5 -3 -10 -2 -10 3 0 5 -7 9 -15 10 -8 1 -22 3 -30 4 -8 1 -15 5 -15
11 0 5 -6 7 -12 4 -7 -2 -19 3 -26 12 -8 9 -11 10 -7 4 4 -8 0 -13 -10 -13 -9
0 -14 4 -11 9 5 8 -44 21 -87 22 -9 0 -15 4 -13 8 3 4 -10 7 -29 6 -19 0 -35
2 -35 5 0 3 -14 5 -32 4 -17 -1 -42 2 -55 7 -15 5 -23 5 -23 -2 0 -6 -5 -7
-12 -3 -13 9 -57 12 -63 5z"/>
<path d="M2290 1303 c0 -7 -12 -10 -30 -8 -19 3 -30 0 -30 -8 0 -8 -3 -8 -9 1
-6 11 -10 10 -15 -4 -5 -13 -10 -14 -18 -6 -8 8 -15 9 -25 1 -9 -9 -13 -8 -13
0 0 8 -5 9 -19 1 -11 -5 -31 -10 -46 -10 -18 0 -24 -4 -19 -12 6 -10 4 -10 -7
-3 -20 15 -35 13 -106 -15 -15 -6 -23 -5 -27 3 -3 9 -5 8 -5 -1 -1 -7 -5 -10
-11 -7 -5 3 -10 3 -10 -2 0 -4 -14 -9 -32 -9 -18 -1 -34 -6 -36 -13 -2 -6 -9
-8 -15 -4 -7 4 -6 -1 2 -10 7 -9 16 -15 20 -12 4 2 14 -5 21 -16 8 -10 24 -19
35 -19 13 0 16 -3 8 -8 -9 -6 -4 -13 17 -26 17 -9 30 -24 30 -32 0 -8 5 -14
10 -14 6 0 10 -7 10 -15 0 -8 3 -15 8 -15 7 0 46 -81 42 -88 -1 -2 6 -15 15
-29 12 -17 13 -23 4 -17 -12 6 -12 5 0 -9 7 -9 11 -17 7 -17 -4 0 0 -13 9 -30
12 -23 12 -30 3 -30 -10 0 -10 -2 0 -8 6 -5 13 -27 15 -50 1 -23 6 -42 11 -42
4 0 6 -7 2 -15 -3 -8 -1 -15 3 -15 5 0 8 -11 6 -25 -1 -14 2 -25 6 -25 5 0 9
-11 9 -25 0 -14 4 -25 9 -25 5 0 15 -15 22 -33 13 -30 27 -52 56 -82 7 -7 9
-15 6 -19 -4 -3 -1 -6 6 -6 17 0 42 -26 33 -35 -4 -4 -2 -6 3 -4 14 4 65 -22
65 -33 0 -5 5 -6 10 -3 6 3 10 1 10 -5 0 -7 7 -10 15 -6 8 3 15 2 15 -3 0 -7
15 -11 53 -12 9 0 17 -5 17 -10 0 -6 5 -7 10 -4 6 3 10 0 10 -7 0 -9 2 -10 8
-1 9 13 84 12 94 -2 5 -7 8 -6 8 0 0 6 12 10 28 10 15 -1 39 7 55 18 15 10 27
15 27 11 0 -4 8 1 18 12 33 36 49 69 46 92 -2 13 0 21 5 18 9 -6 7 29 -4 64
-6 17 -4 21 6 14 11 -6 10 -3 -1 10 -20 25 -22 46 -2 39 11 -5 13 -3 7 8 -6
11 -5 12 6 2 16 -16 33 -17 23 -1 -5 8 -3 8 7 2 18 -12 109 -12 109 -1 0 5 7
7 15 3 8 -3 15 -1 15 5 0 6 5 7 10 4 6 -3 10 0 10 7 0 9 3 9 10 -2 6 -10 10
-11 10 -2 0 6 7 12 15 12 8 0 15 5 15 10 0 6 5 10 11 10 13 0 65 61 62 72 -2
4 2 8 8 8 5 0 8 4 4 9 -3 5 -1 12 5 16 6 4 8 11 5 16 -4 5 -1 9 6 9 9 0 9 3 0
14 -9 10 -9 16 -1 21 8 5 8 11 1 19 -7 9 -7 16 1 24 9 9 9 12 1 12 -7 0 -10 9
-8 20 2 11 -1 20 -6 20 -6 0 -7 5 -4 10 3 6 2 10 -4 10 -6 0 -8 7 -5 15 4 8 1
15 -6 15 -6 0 -9 4 -6 8 3 5 -3 18 -14 29 -10 12 -16 24 -13 27 4 3 1 6 -5 6
-7 0 -12 6 -12 13 0 8 -15 26 -34 42 -19 16 -33 33 -30 37 3 4 -1 8 -8 8 -8 0
-20 9 -28 20 -8 11 -20 20 -27 20 -7 0 -13 3 -13 8 0 8 -81 47 -92 44 -5 -1
-8 3 -8 9 0 5 -5 7 -11 3 -6 -3 -14 -2 -18 5 -4 6 -24 12 -44 13 -20 2 -37 5
-37 8 0 5 -48 11 -97 13 -13 1 -23 5 -23 10 0 5 -6 5 -13 -1 -8 -7 -18 -7 -27
-2 -21 14 -32 12 -24 -2 6 -10 5 -10 -7 -1 -12 10 -18 10 -27 1 -9 -9 -12 -9
-12 0 0 14 -21 12 -32 -3 -5 -6 -8 -6 -8 2 0 12 -17 12 -37 0 -8 -5 -13 -3
-13 4 0 8 -4 9 -13 0 -10 -8 -17 -7 -25 1 -9 9 -12 9 -12 1z"/>
<path d="M1622 1143 c-7 -10 -10 -12 -6 -5 5 11 2 11 -14 1 -12 -7 -19 -16
-16 -20 4 -7 -34 -22 -49 -20 -5 1 -6 -3 -3 -8 4 -5 -7 -18 -24 -27 -16 -10
-30 -24 -30 -31 0 -7 -7 -10 -15 -7 -9 4 -15 0 -15 -10 0 -9 -7 -16 -15 -16
-8 0 -14 -6 -12 -12 1 -7 -3 -12 -10 -11 -6 2 -15 -6 -18 -17 -4 -11 -10 -18
-14 -15 -4 2 -14 -7 -21 -20 -7 -13 -17 -22 -22 -19 -4 3 -8 -2 -8 -10 0 -9
-4 -16 -10 -16 -5 0 -10 -7 -10 -16 0 -9 -9 -18 -19 -21 -13 -3 -18 -10 -14
-21 4 -10 2 -13 -5 -8 -11 6 -16 -5 -9 -20 1 -3 -6 -10 -16 -15 -9 -6 -15 -14
-12 -19 3 -4 -2 -11 -11 -14 -8 -3 -13 -10 -10 -15 3 -5 -1 -14 -9 -21 -8 -7
-13 -16 -10 -20 3 -4 -2 -13 -11 -20 -12 -11 -12 -15 -2 -21 10 -7 10 -9 1 -9
-7 0 -13 -7 -13 -15 0 -8 -5 -15 -11 -15 -8 0 -8 -4 0 -14 7 -8 8 -17 3 -20
-11 -6 -15 -112 -6 -128 4 -6 8 -27 10 -47 2 -20 11 -42 21 -48 13 -10 14 -13
2 -13 -11 0 -12 -2 -1 -9 8 -4 14 -12 15 -17 1 -5 5 -8 9 -7 5 2 8 -6 8 -18 0
-15 5 -19 15 -15 8 3 14 0 12 -7 -1 -6 8 -13 21 -15 13 -2 20 -8 16 -14 -5 -7
-2 -9 8 -5 9 3 21 0 27 -6 8 -8 11 -8 11 2 0 10 3 11 14 2 11 -9 15 -9 19 1 4
10 6 10 6 -1 1 -10 5 -11 14 -3 6 6 14 10 17 10 18 0 66 17 71 24 3 5 15 10
27 11 11 0 18 5 16 9 -3 4 2 8 10 8 9 0 16 5 16 10 0 15 31 12 49 -5 44 -42
109 -85 129 -85 13 0 21 -4 18 -9 -4 -5 2 -8 11 -6 10 1 26 -2 36 -7 11 -6 17
-5 17 3 0 9 3 9 14 0 9 -7 17 -8 20 -2 3 5 15 7 26 4 11 -3 20 0 20 6 0 6 3
10 8 10 20 -3 33 4 63 34 18 17 29 26 24 18 -6 -10 -4 -12 4 -7 7 5 10 11 7
14 -4 3 1 16 9 29 9 13 13 28 10 33 -3 6 -1 10 5 10 6 0 9 4 5 9 -3 5 -1 12 5
16 7 4 6 13 -1 27 -9 17 -9 20 4 15 13 -5 14 -1 7 23 -4 15 -7 42 -6 59 1 17
-1 31 -4 31 -3 0 -7 14 -8 32 -2 18 -6 35 -10 38 -7 5 -10 14 -17 52 -2 9 -8
25 -14 36 -6 11 -7 22 -4 26 3 3 1 6 -5 6 -7 0 -12 7 -12 16 0 8 -4 13 -8 10
-4 -2 -9 5 -9 17 -1 12 -8 26 -16 32 -8 5 -12 16 -10 23 3 6 0 12 -6 12 -6 0
-11 7 -11 15 0 8 -5 15 -11 15 -5 0 -8 4 -5 9 3 5 -1 14 -9 21 -8 7 -12 17 -8
23 3 6 1 7 -5 3 -6 -4 -18 8 -28 29 -9 19 -20 32 -25 29 -5 -3 -9 4 -9 16 0
12 -4 18 -10 15 -5 -3 -10 1 -10 9 0 8 -8 20 -17 25 -10 6 -15 11 -11 11 14 0
-26 40 -40 40 -7 0 -11 4 -7 9 3 5 -6 18 -20 29 -14 11 -25 25 -25 31 0 16
-13 13 -28 -6z"/>
</g>
</svg>
